<mxfile host="Electron" modified="2024-05-25T02:38:24.647Z" agent="Mozilla/5.0 (Windows NT 10.0; Win64; x64) AppleWebKit/537.36 (KHTML, like Gecko) draw.io/24.4.0 Chrome/120.0.6099.109 Electron/28.1.0 Safari/537.36" etag="Ik5jZjC01ZuaI-WVGxFy" version="24.4.0" type="device">
  <diagram id="C5RBs43oDa-KdzZeNtuy" name="Page-1">
    <mxGraphModel dx="1877" dy="717" grid="1" gridSize="10" guides="1" tooltips="1" connect="1" arrows="1" fold="1" page="1" pageScale="1" pageWidth="827" pageHeight="1169" math="0" shadow="0">
      <root>
        <mxCell id="WIyWlLk6GJQsqaUBKTNV-0" />
        <mxCell id="WIyWlLk6GJQsqaUBKTNV-1" parent="WIyWlLk6GJQsqaUBKTNV-0" />
        <mxCell id="MQMEOSg6uZpYHeGEIdXq-32" value="" style="fontStyle=0;dashed=1;html=1;whiteSpace=wrap;opacity=40;" vertex="1" parent="WIyWlLk6GJQsqaUBKTNV-1">
          <mxGeometry x="-450" y="10" width="420" height="510" as="geometry" />
        </mxCell>
        <mxCell id="MQMEOSg6uZpYHeGEIdXq-24" value="" style="edgeStyle=orthogonalEdgeStyle;rounded=0;orthogonalLoop=1;jettySize=auto;html=1;" edge="1" parent="WIyWlLk6GJQsqaUBKTNV-1" source="MQMEOSg6uZpYHeGEIdXq-0" target="MQMEOSg6uZpYHeGEIdXq-2">
          <mxGeometry relative="1" as="geometry" />
        </mxCell>
        <mxCell id="MQMEOSg6uZpYHeGEIdXq-0" value="" style="ellipse;fillColor=strokeColor;html=1;" vertex="1" parent="WIyWlLk6GJQsqaUBKTNV-1">
          <mxGeometry x="-570" y="85" width="30" height="30" as="geometry" />
        </mxCell>
        <mxCell id="MQMEOSg6uZpYHeGEIdXq-26" value="" style="edgeStyle=orthogonalEdgeStyle;rounded=0;orthogonalLoop=1;jettySize=auto;html=1;" edge="1" parent="WIyWlLk6GJQsqaUBKTNV-1" source="MQMEOSg6uZpYHeGEIdXq-2" target="MQMEOSg6uZpYHeGEIdXq-3">
          <mxGeometry relative="1" as="geometry">
            <Array as="points">
              <mxPoint x="-310" y="230" />
              <mxPoint x="-310" y="230" />
            </Array>
          </mxGeometry>
        </mxCell>
        <mxCell id="MQMEOSg6uZpYHeGEIdXq-2" value="Available&lt;div&gt;———————————&lt;/div&gt;&lt;div&gt;entry/空闲可借&lt;/div&gt;" style="html=1;align=center;verticalAlign=top;rounded=1;absoluteArcSize=1;arcSize=10;dashed=0;whiteSpace=wrap;" vertex="1" parent="WIyWlLk6GJQsqaUBKTNV-1">
          <mxGeometry x="-340" y="70" width="140" height="60" as="geometry" />
        </mxCell>
        <mxCell id="MQMEOSg6uZpYHeGEIdXq-8" value="" style="edgeStyle=orthogonalEdgeStyle;rounded=0;orthogonalLoop=1;jettySize=auto;html=1;" edge="1" parent="WIyWlLk6GJQsqaUBKTNV-1" source="MQMEOSg6uZpYHeGEIdXq-3" target="MQMEOSg6uZpYHeGEIdXq-5">
          <mxGeometry relative="1" as="geometry" />
        </mxCell>
        <mxCell id="MQMEOSg6uZpYHeGEIdXq-3" value="Borrowed&lt;div&gt;———————————&lt;/div&gt;&lt;div&gt;entry/借出使用&lt;/div&gt;" style="html=1;align=center;verticalAlign=top;rounded=1;absoluteArcSize=1;arcSize=10;dashed=0;whiteSpace=wrap;" vertex="1" parent="WIyWlLk6GJQsqaUBKTNV-1">
          <mxGeometry x="-340" y="260" width="140" height="60" as="geometry" />
        </mxCell>
        <mxCell id="MQMEOSg6uZpYHeGEIdXq-7" value="" style="edgeStyle=orthogonalEdgeStyle;rounded=0;orthogonalLoop=1;jettySize=auto;html=1;" edge="1" parent="WIyWlLk6GJQsqaUBKTNV-1" source="MQMEOSg6uZpYHeGEIdXq-5" target="MQMEOSg6uZpYHeGEIdXq-6">
          <mxGeometry relative="1" as="geometry" />
        </mxCell>
        <mxCell id="MQMEOSg6uZpYHeGEIdXq-5" value="Lost&lt;div&gt;———————————&lt;/div&gt;&lt;div&gt;entry/丢失&lt;/div&gt;" style="html=1;align=center;verticalAlign=top;rounded=1;absoluteArcSize=1;arcSize=10;dashed=0;whiteSpace=wrap;" vertex="1" parent="WIyWlLk6GJQsqaUBKTNV-1">
          <mxGeometry x="-340" y="400" width="140" height="60" as="geometry" />
        </mxCell>
        <mxCell id="MQMEOSg6uZpYHeGEIdXq-6" value="" style="ellipse;html=1;shape=endState;fillColor=strokeColor;" vertex="1" parent="WIyWlLk6GJQsqaUBKTNV-1">
          <mxGeometry x="-570" y="415" width="30" height="30" as="geometry" />
        </mxCell>
        <mxCell id="MQMEOSg6uZpYHeGEIdXq-10" value="reportLost()" style="text;html=1;align=center;verticalAlign=middle;resizable=0;points=[];autosize=1;strokeColor=none;fillColor=none;" vertex="1" parent="WIyWlLk6GJQsqaUBKTNV-1">
          <mxGeometry x="-360" y="330" width="90" height="30" as="geometry" />
        </mxCell>
        <mxCell id="MQMEOSg6uZpYHeGEIdXq-23" value="borrow()/借用" style="text;html=1;align=center;verticalAlign=middle;resizable=0;points=[];autosize=1;strokeColor=none;fillColor=none;" vertex="1" parent="WIyWlLk6GJQsqaUBKTNV-1">
          <mxGeometry x="-405" y="188" width="100" height="30" as="geometry" />
        </mxCell>
        <mxCell id="MQMEOSg6uZpYHeGEIdXq-25" style="edgeStyle=orthogonalEdgeStyle;rounded=0;orthogonalLoop=1;jettySize=auto;html=1;exitX=0;exitY=0;exitDx=0;exitDy=0;entryX=1;entryY=0;entryDx=0;entryDy=0;" edge="1" parent="WIyWlLk6GJQsqaUBKTNV-1" source="MQMEOSg6uZpYHeGEIdXq-0" target="MQMEOSg6uZpYHeGEIdXq-0">
          <mxGeometry relative="1" as="geometry" />
        </mxCell>
        <mxCell id="MQMEOSg6uZpYHeGEIdXq-27" value="" style="endArrow=classic;html=1;rounded=0;entryX=0.75;entryY=1;entryDx=0;entryDy=0;exitX=0.75;exitY=0;exitDx=0;exitDy=0;" edge="1" parent="WIyWlLk6GJQsqaUBKTNV-1" source="MQMEOSg6uZpYHeGEIdXq-3" target="MQMEOSg6uZpYHeGEIdXq-2">
          <mxGeometry width="50" height="50" relative="1" as="geometry">
            <mxPoint x="-243" y="260" as="sourcePoint" />
            <mxPoint x="-243" y="170" as="targetPoint" />
          </mxGeometry>
        </mxCell>
        <mxCell id="MQMEOSg6uZpYHeGEIdXq-28" value="return()/归还" style="text;html=1;align=center;verticalAlign=middle;resizable=0;points=[];autosize=1;strokeColor=none;fillColor=none;" vertex="1" parent="WIyWlLk6GJQsqaUBKTNV-1">
          <mxGeometry x="-240" y="188" width="90" height="30" as="geometry" />
        </mxCell>
        <mxCell id="MQMEOSg6uZpYHeGEIdXq-34" value="BookManager" style="text;html=1;align=center;verticalAlign=middle;resizable=0;points=[];autosize=1;strokeColor=none;fillColor=none;" vertex="1" parent="WIyWlLk6GJQsqaUBKTNV-1">
          <mxGeometry x="-290" y="10" width="100" height="30" as="geometry" />
        </mxCell>
      </root>
    </mxGraphModel>
  </diagram>
</mxfile>
